# xmcd
#
# Track frame offsets:
#	150
#	34807
#	56422
#	88497
#	122759
#	158018
#	186375
#	215106
#	238637
#	264909
#	322183
#
# Disc length: 4775 seconds
#
# Revision: 1
# Processed by: cddbd v1.5.2PL0 Copyright (c) Steve Scherf et al.
# Submitted via: audiograbber 1.83.01
#
DISCID=a212a50b
DTITLE=Grateful Dead - 80-10-11 Warfield Theatre, San Francisco CA
DYEAR=1900
DGENRE=
TTITLE0=Loser
TTITLE1=Passenger
TTITLE2=Ramble On Rose
TTITLE3=Looks Like Rain
TTITLE4=Althea
TTITLE5=Lost Sailor
TTITLE6=Saint Of Circumstance
TTITLE7=China Cat Sunflower
TTITLE8=I Know You Rider
TTITLE9=Let It Grow
TTITLE10=Drums
EXTD=
EXTT0=
EXTT1=
EXTT2=
EXTT3=
EXTT4=
EXTT5=
EXTT6=
EXTT7=
EXTT8=
EXTT9=
EXTT10=
PLAYORDER=
